PathFileType	4	(X/Y/Z)	Patient4_TMGait_0pt2_03_right_23.trc.trc
DataRate	CameraRate	NumFrames	NumMarkers	Units	OrigDataRate	OrigDataStartFrame	OrigNumFrames
48.275862068965	48.275862068965	5	33	mm	48.275862068965	106	       141
Frame#	Time	Sacral			L.Shoulder			Chest			R.Shoulder			Neck			R.ASIS			L.ASIS			R.Thigh.Superior			R.Thigh.Lateral			R.Thigh.Inferior			R.Patella			L.Thigh.Superior			L.Thigh.Lateral			L.Thigh.Inferior			L.Patella			L.Shank.Superior			L.Shank.Lateral			L.Shank.Inferior			R.Shank.Superior			R.Shank.Lateral			R.Shank.Inferior			R.Heel			R.Midfoot.Superior			R.Midfoot.Lateral			R.Toe			L.Heel			L.Midfoot.Lateral			L.Midfoot.Superior			L.Toe			L.Elbow			L.Wrist			R.Elbow			R.Wrist			
		X1	Y1	Z1	X2	Y2	Z2	X3	Y3	Z3	X4	Y4	Z4	X5	Y5	Z5	X6	Y6	Z6	X7	Y7	Z7	X8	Y8	Z8	X9	Y9	Z9	X10	Y10	Z10	X11	Y11	Z11	X12	Y12	Z12	X13	Y13	Z13	X14	Y14	Z14	X15	Y15	Z15	X16	Y16	Z16	X17	Y17	Z17	X18	Y18	Z18	X19	Y19	Z19	X20	Y20	Z20	X21	Y21	Z21	X22	Y22	Z22	X23	Y23	Z23	X24	Y24	Z24	X25	Y25	Z25	X26	Y26	Z26	X27	Y27	Z27	X28	Y28	Z28	X29	Y29	Z29	X30	Y30	Z30	X31	Y31	Z31	X32	Y32	Z32	X33	Y33	Z33	

106	51.335000000000	811.687118514252	988.788871829894	405.891241626962	1000.713382497332	1417.843280960288	220.532406675558	1096.462727235077	1347.977979667699	384.552281974033	1010.424832239273	1421.592336568235	556.369700731629	982.867711970606	1481.734387835971	377.547815160360	1042.259908432254	935.050795459670	525.610361729368	1031.489511520790	947.159980509225	251.544491902461	1133.758897680892	770.719785975026	499.554519588582	1103.293096353803	652.559347716217	582.791348614224	1193.268768939099	614.838661843176	502.344292759665	1219.544638339148	504.581573677968	530.505473709057	1103.043004204852	748.987198127670	293.422954656655	1027.539081065904	608.236656315540	235.565170279372	1126.169800969396	556.483317313281	309.981510580683	1134.904489430081	483.676398078329	320.955275695432	1099.487932866546	405.275606260631	314.341202831193	1001.192206831527	297.745405198582	261.805365294662	1036.508511919199	185.844487690447	339.796533431924	1142.620458352122	429.074818116272	548.655337920697	1021.735595070850	396.386434671396	613.323190496450	1009.344568993205	283.081228622099	578.154912620597	811.095256256395	216.115785482078	555.366887690274	977.365662986415	167.953844663365	609.175544682428	868.101895954301	167.878798516740	637.520061751649	1043.436765895930	62.402872456251	650.764095026057	894.028319780383	38.310737019018	381.437481874861	966.591552495639	35.045747799475	299.417298521550	1050.116702738070	96.576099058818	326.316278033359	1177.522448624532	48.202552596235	294.423477908716	1066.639307229434	1077.305487189904	88.611743062894	1259.362282225814	902.695652861425	121.684166666698	980.383147286933	1066.458311187989	664.178124844234	1057.662798456029	818.521523442089	664.855790978423	
107	51.355714285714	811.483669281023	989.442969273543	403.702384618605	1002.834045444776	1418.883302935107	220.610028390690	1096.499846484740	1348.660848459164	385.608851849475	1008.305493980242	1421.890800163463	556.556380720856	983.217723945030	1482.439748659282	377.507212170374	1041.057407294579	935.856805092360	525.604056721629	1032.851214965699	948.027361702687	251.178247671857	1132.742181868785	772.153174624571	500.650830662960	1101.926572124765	654.171691469499	584.240317956978	1192.247305657658	616.712060328034	504.275751147110	1220.311285512462	508.913696454657	532.961980603033	1102.091856683454	748.592459893625	293.701627347407	1025.604816496534	608.529042469924	235.129965534942	1122.996499820865	555.908682326914	310.239050071170	1131.026432424353	483.305747154985	321.266568881949	1095.525342866469	405.121310440030	314.390941038143	997.280429970882	297.627781714046	261.635230052577	1032.247441630963	185.779253305775	339.847414873044	1148.525306780114	430.780738564299	550.902768571954	1031.503543830999	389.458823970839	615.270309608773	1028.153782225137	276.136874689411	579.900649444585	837.580656233361	193.755464774019	556.385583772813	1005.737993425874	159.845586683980	610.666829353964	897.856650670126	150.938767530302	638.663688873974	1079.530374445978	61.182480692829	652.359673113594	889.779095872579	38.267694309289	381.370928335739	962.381059107676	35.018775823730	299.366523524031	1045.877197629649	96.602316417731	326.295877397606	1173.303960321151	48.302091096293	294.438446309167	1074.652996452355	1081.280315404513	86.258379762179	1278.742637736811	920.232031688938	122.354155310706	960.968596258761	1069.070425680863	663.222824911184	1016.117026801498	814.265842154824	666.327102141278	
108	51.376428571429	811.442866078305	990.897747448031	401.731859254262	1005.531100430641	1420.413773390829	220.901375897286	1096.833455643715	1349.925641664516	387.033807304072	1006.326340505454	1423.118177893095	556.802123742610	983.925407001378	1483.736559725227	377.528363666537	1039.778419803589	937.181209264791	526.104973884937	1034.401753695403	949.427197866934	251.308160251684	1130.901291219819	773.525306821163	502.053008432284	1099.359446760942	655.811887689631	585.914076462468	1189.572629046195	618.188844741081	506.214842360935	1219.298552608835	513.256442861113	535.390152076217	1100.581824581266	748.371309768898	294.366583839620	1022.726498119320	609.314995919707	234.809485232507	1118.637099222269	555.503224068170	310.571371374526	1125.731097088366	483.201706512033	321.591307731020	1090.393409970108	405.363843795048	314.400712581116	992.498247106385	297.653040974584	261.465341756062	1027.532887293620	185.944466341997	339.855804762663	1153.537683200341	432.531972933316	553.201840756353	1041.710175993398	381.580580542512	617.806040902146	1048.284026698969	268.773027228284	581.911261529257	866.989243341299	169.560668651312	558.488155698827	1036.862013548486	151.413147176160	612.124723121916	931.136709455657	132.611088765672	640.278068933929	1119.164915954207	60.690403610728	653.012801126706	885.506733047702	38.209815512244	381.314348495571	958.141510902275	34.987070368004	299.315662374203	1041.567244244716	96.672979903201	326.228861515830	1169.039986354641	48.482743430021	294.449159502521	1083.044739914351	1086.057898891643	84.001715710653	1297.103077941700	938.998717312883	123.339850999588	941.794696807118	1073.795357476626	662.590474526990	976.743101044390	814.603702748692	667.895509261154	
109	51.397142857143	811.570077031352	992.953593453407	400.035816976872	1008.690393546530	1422.259668352754	221.407622934527	1097.402206463847	1351.638765515398	388.805173945013	1004.458796772216	1425.123902957495	557.102790212312	984.913090161497	1485.465329888630	377.607625039552	1038.482270508635	938.855454298939	527.082685565897	1036.111590681942	951.238724372114	251.912053770996	1128.391452513040	774.756782395353	503.623190231506	1095.937275986552	657.394449447491	587.711588772289	1185.606515180117	619.253789679101	508.033855328185	1216.877066246768	517.468995775387	537.612196408964	1098.640301903094	748.278871735630	295.383058463080	1019.132735408288	610.494321891267	234.597529956288	1113.366374094696	555.235485002132	310.978297318732	1119.338115948949	483.310175444890	321.933320673620	1084.368529984946	405.922831827574	314.386324232800	987.056383058522	297.799006851917	261.296778246633	1022.476326895862	186.290592768038	339.833873234538	1157.747086674369	434.333847351091	555.376646768376	1052.274690732298	373.377461657539	620.735113641074	1069.075600187362	261.690064012883	584.001010556860	898.311204222641	145.321813814791	561.463342510320	1069.487817969304	143.522665960005	613.351434832312	966.679673026087	114.387658932054	642.156497067533	1160.515027810765	61.400096946413	652.547037739379	881.220439374481	38.141560637799	381.269322119029	953.881378260989	34.953455655514	299.267350421799	1037.206722769476	96.772348279361	326.132885468110	1164.743147275508	48.715273806464	294.461665022070	1091.811954246856	1091.432152434118	81.947152935174	1314.382549272941	958.603682497710	124.673595242580	923.068544688465	1080.386282254973	662.267124497836	940.168862440966	818.850321262114	669.607507734075	
110	51.417857142857	811.865582646500	995.360807058749	398.671658793359	1012.170161981970	1424.216580818419	222.135022432008	1098.142241948728	1353.624337657493	390.890248911455	1002.693090157555	1427.693333810194	557.470588978078	986.096879846589	1487.429636154513	377.759385095254	1037.240210909632	940.673517470986	528.487051451515	1037.943640617418	953.313115178664	252.947811732227	1125.423138357770	775.764294780329	505.274773674371	1092.015207717436	658.818170044484	589.569223434339	1180.790329876095	619.905855243254	509.703493039206	1213.465001286075	521.403755226999	539.545706280316	1096.418876549742	748.257047703048	296.684416080053	1015.079453490238	611.941484548249	234.478119498491	1107.499109287563	555.058604068025	311.439016887400	1112.213839271538	483.559490533073	322.279626419505	1077.767166989773	406.696242211255	314.353337506286	981.192856854043	298.031204666228	261.124834063719	1017.206567876486	186.755690076725	339.787502794911	1161.252326711748	436.151291739189	557.317933726924	1063.001125579600	365.413001484518	623.862784084510	1089.768708335046	255.445467124165	586.009264646134	930.301380039552	122.627596240821	565.027016083723	1102.228209818364	136.836694194470	614.208228324417	1002.977979926705	97.546658693452	644.083329304523	1201.642828587177	63.512214390229	650.917350852685	876.930424783496	38.069037764422	381.235300856764	949.610357020605	34.919745817561	299.223350991620	1032.818887583947	96.882125725432	326.023805451893	1160.428851311291	48.966282751771	294.479884652823	1100.899310850933	1097.144798796151	80.221795678685	1330.544849291849	978.632668543172	126.389903851878	905.046866198859	1088.455044930420	662.219701326615	906.856747956741	826.133540830036	671.504600095386	
